<svg width="22" height="22" viewBox="0 0 22 22" fill="none" xmlns="http://www.w3.org/2000/svg">
<path fill-rule="evenodd" clip-rule="evenodd" d="M20.6002 0.200195H1.4002C0.740195 0.200195 0.200195 0.740195 0.200195 1.4002V8.6002C0.200195 9.2602 0.740195 9.8002 1.4002 9.8002H20.6002C21.2602 9.8002 21.8002 9.2602 21.8002 8.6002V1.4002C21.8002 0.740195 21.2602 0.200195 20.6002 0.200195ZM19.4002 7.4002H2.6002V2.6002H19.4002V7.4002ZM20.6002 12.2002H1.4002C0.740195 12.2002 0.200195 12.7402 0.200195 13.4002V20.6002C0.200195 21.2602 0.740195 21.8002 1.4002 21.8002H20.6002C21.2602 21.8002 21.8002 21.2602 21.8002 20.6002V13.4002C21.8002 12.7402 21.2602 12.2002 20.6002 12.2002ZM19.4002 19.4002H2.6002V14.6002H19.4002V19.4002Z" fill="#232632"/>
</svg>
