<svg width="31" height="30" viewBox="0 0 31 30" fill="none" xmlns="http://www.w3.org/2000/svg">
<path d="M28.9461 13.447H28.9447C28.7409 13.4472 28.5392 13.4875 28.351 13.5656C28.1628 13.6438 27.9918 13.7582 27.8479 13.9024C27.7039 14.0466 27.5898 14.2178 27.5119 14.4061C27.4341 14.5944 27.3942 14.7962 27.3943 15C27.3924 17.1752 26.7942 19.3083 25.6648 21.1674C24.5353 23.0266 22.9179 24.5405 20.9882 25.5448C19.0586 26.549 16.8905 27.0052 14.7198 26.8636C12.549 26.7221 10.4586 25.9882 8.6757 24.7418C3.30308 20.98 1.99264 13.5487 5.75464 8.17631C9.51664 2.8039 16.9484 1.4934 22.321 5.25533C23.1338 5.82295 23.8725 6.48991 24.52 7.24071H20.1533C19.7418 7.24071 19.3471 7.40418 19.0561 7.69516C18.7651 7.98613 18.6017 8.38078 18.6017 8.79229C18.6017 9.20379 18.7651 9.59844 19.0561 9.88942C19.3471 10.1804 19.7418 10.3439 20.1533 10.3439H27.3944C27.8059 10.3439 28.2006 10.1804 28.4916 9.88942C28.7826 9.59844 28.9461 9.20379 28.9461 8.79229V1.55158C28.9461 1.14008 28.7826 0.745425 28.4916 0.454447C28.2006 0.16347 27.8059 0 27.3944 0C26.9829 0 26.5882 0.16347 26.2972 0.454447C26.0062 0.745425 25.8427 1.14008 25.8427 1.55158V4.13541C25.2982 3.6188 24.716 3.1434 24.101 2.71313C22.4876 1.58348 20.6675 0.782652 18.7445 0.356381C16.8216 -0.0698891 14.8336 -0.113257 12.8939 0.228753C10.9542 0.570763 9.10088 1.29145 7.43973 2.34968C5.77859 3.4079 4.34215 4.78293 3.21244 6.39626C0.930881 9.65453 0.0371778 13.6856 0.727933 17.6028C1.41869 21.52 3.63732 25.0023 6.89575 27.2838C9.40449 29.0507 12.3979 29.9994 15.4665 30C16.3504 29.9996 17.2325 29.922 18.1028 29.7682C21.5756 29.1556 24.7215 27.3393 26.9882 24.638C29.2549 21.9368 30.4974 18.5234 30.4977 14.9973C30.4974 14.586 30.3337 14.1917 30.0428 13.901C29.7519 13.6103 29.3574 13.447 28.9461 13.447Z" fill="#191B23"/>
</svg>
