<svg width="16" height="13" viewBox="0 0 16 13" fill="none" xmlns="http://www.w3.org/2000/svg">
<path fill-rule="evenodd" clip-rule="evenodd" d="M15.1265 0.650293C15.0624 0.597464 14.9712 0.585207 14.8939 0.618903L0.924359 6.71775C0.849152 6.7506 0.800722 6.8211 0.799818 6.89901C0.798914 6.97692 0.845751 7.04839 0.920226 7.08274L3.6798 8.25299C3.7523 8.28644 9.4398 5.47012 9.4398 5.47012L5.9773 9.11498C5.88902 9.20791 5.8398 9.33118 5.8398 9.45935V11.8997C5.8398 12.3474 6.38306 12.5695 6.69666 12.2499L8.3526 10.5626L11.2335 11.9327C11.2898 11.958 11.355 11.9591 11.4122 11.9357C11.4694 11.9123 11.513 11.8667 11.5317 11.8108L15.1899 0.862942C15.2155 0.78649 15.1905 0.703121 15.1265 0.650293Z" fill="#232632"/>
</svg>
