<svg width="23" height="19" viewBox="0 0 23 19" fill="none" xmlns="http://www.w3.org/2000/svg">
<path fill-rule="evenodd" clip-rule="evenodd" d="M18.1 9.2C20.53 9.2 22.5 7.14046 22.5 4.6C22.5 2.05949 20.53 0 18.1 0C16.0498 0 14.3271 1.46599 13.8386 3.45H1.6C0.992492 3.45 0.5 3.96488 0.5 4.6C0.5 5.23513 0.992492 5.75 1.6 5.75H13.8386C14.3271 7.73398 16.0498 9.2 18.1 9.2ZM15.9 4.6C15.9 5.87026 16.8849 6.9 18.1 6.9C19.3151 6.9 20.3 5.87026 20.3 4.6C20.3 3.32974 19.3151 2.3 18.1 2.3C16.8849 2.3 15.9 3.32974 15.9 4.6ZM0.5 13.8C0.5 11.2595 2.46995 9.2 4.9 9.2C6.95022 9.2 8.67293 10.666 9.16138 12.65H21.4C22.0075 12.65 22.5 13.1649 22.5 13.8C22.5 14.4351 22.0075 14.95 21.4 14.95H9.16138C8.67293 16.934 6.95022 18.4 4.9 18.4C2.46995 18.4 0.5 16.3405 0.5 13.8ZM7.1 13.8C7.1 12.5297 6.11503 11.5 4.9 11.5C3.68497 11.5 2.7 12.5297 2.7 13.8C2.7 15.0703 3.68497 16.1 4.9 16.1C6.11503 16.1 7.1 15.0703 7.1 13.8Z" fill="#191B23"/>
</svg>
